M48
; DRILL file {KiCad (6.0.9)} date Mon Mar 20 19:11:46 2023
; FORMAT={-:-/ absolute / inch / decimal}
; #@! TF.CreationDate,2023-03-20T19:11:46+01:00
; #@! TF.GenerationSoftware,Kicad,Pcbnew,(6.0.9)
; #@! TF.FileFunction,Plated,1,2,PTH
FMAT,2
INCH
; #@! TA.AperFunction,Plated,PTH,ViaDrill
T1C0.0157
; #@! TA.AperFunction,Plated,PTH,ComponentDrill
T2C0.0217
; #@! TA.AperFunction,Plated,PTH,ComponentDrill
T3C0.0335
; #@! TA.AperFunction,Plated,PTH,ComponentDrill
T4C0.0394
%
G90
G05
T1
X5.8543Y-3.2156
X5.8711Y-2.9872
X5.9478Y-3.3189
X5.9528Y-2.9764
X5.9902Y-3.1447
X6.1024Y-2.878
X6.2933Y-3.1299
X6.3189Y-2.9961
X6.4028Y-2.7126
X6.4646Y-3.2008
X6.6929Y-3.0276
X6.8504Y-3.626
X6.874Y-3.7047
X6.9488Y-3.5827
X7.0315Y-3.2441
X7.0443Y-3.8219
X7.0728Y-2.4311
X7.1299Y-3.7126
X7.1378Y-3.2441
T4
X5.7776Y-2.315
X5.786Y-3.91
X5.8776Y-2.315
X5.886Y-3.91
X5.9776Y-2.315
X5.986Y-3.91
X6.0776Y-2.315
X6.086Y-3.91
X6.1776Y-2.315
X6.186Y-3.91
X6.2776Y-2.315
X6.286Y-3.91
X6.3776Y-2.315
X6.386Y-3.91
X6.4776Y-2.315
X6.486Y-3.91
X6.5776Y-2.315
X6.586Y-3.91
X6.6776Y-2.315
X6.686Y-3.91
X6.7776Y-2.315
X6.786Y-3.91
X6.8776Y-2.315
X6.886Y-3.91
X6.9776Y-2.315
X6.986Y-3.91
X7.0776Y-2.315
X7.086Y-3.91
X7.1776Y-2.315
X7.186Y-3.91
T2
G00X7.2217Y-3.1422
M15
G01X7.2473Y-3.1422
M16
G05
G00X7.2217Y-3.4473
M15
G01X7.2473Y-3.4473
M16
G05
T3
G00X7.0741Y-3.1481
M15
G01X7.0957Y-3.1481
M16
G05
G00X7.0741Y-3.4414
M15
G01X7.0957Y-3.4414
M16
G05
T0
M30
