%TF.GenerationSoftware,KiCad,Pcbnew,(6.0.9)*%
%TF.CreationDate,2023-03-20T19:11:49+01:00*%
%TF.ProjectId,STM32F103_prjct2,53544d33-3246-4313-9033-5f70726a6374,rev?*%
%TF.SameCoordinates,Original*%
%TF.FileFunction,Paste,Top*%
%TF.FilePolarity,Positive*%
%FSLAX46Y46*%
G04 Gerber Fmt 4.6, Leading zero omitted, Abs format (unit mm)*
G04 Created by KiCad (PCBNEW (6.0.9)) date 2023-03-20 19:11:49*
%MOMM*%
%LPD*%
G01*
G04 APERTURE LIST*
G04 Aperture macros list*
%AMRoundRect*
0 Rectangle with rounded corners*
0 $1 Rounding radius*
0 $2 $3 $4 $5 $6 $7 $8 $9 X,Y pos of 4 corners*
0 Add a 4 corners polygon primitive as box body*
4,1,4,$2,$3,$4,$5,$6,$7,$8,$9,$2,$3,0*
0 Add four circle primitives for the rounded corners*
1,1,$1+$1,$2,$3*
1,1,$1+$1,$4,$5*
1,1,$1+$1,$6,$7*
1,1,$1+$1,$8,$9*
0 Add four rect primitives between the rounded corners*
20,1,$1+$1,$2,$3,$4,$5,0*
20,1,$1+$1,$4,$5,$6,$7,0*
20,1,$1+$1,$6,$7,$8,$9,0*
20,1,$1+$1,$8,$9,$2,$3,0*%
G04 Aperture macros list end*
%ADD10R,1.400000X1.200000*%
%ADD11RoundRect,0.075000X-0.662500X-0.075000X0.662500X-0.075000X0.662500X0.075000X-0.662500X0.075000X0*%
%ADD12RoundRect,0.075000X-0.075000X-0.662500X0.075000X-0.662500X0.075000X0.662500X-0.075000X0.662500X0*%
%ADD13RoundRect,0.150000X0.150000X-0.587500X0.150000X0.587500X-0.150000X0.587500X-0.150000X-0.587500X0*%
%ADD14RoundRect,0.135000X0.135000X0.185000X-0.135000X0.185000X-0.135000X-0.185000X0.135000X-0.185000X0*%
%ADD15RoundRect,0.200000X-0.275000X0.200000X-0.275000X-0.200000X0.275000X-0.200000X0.275000X0.200000X0*%
%ADD16RoundRect,0.135000X-0.135000X-0.185000X0.135000X-0.185000X0.135000X0.185000X-0.135000X0.185000X0*%
%ADD17RoundRect,0.147500X-0.147500X-0.172500X0.147500X-0.172500X0.147500X0.172500X-0.147500X0.172500X0*%
%ADD18R,1.300000X0.450000*%
%ADD19RoundRect,0.218750X-0.381250X0.218750X-0.381250X-0.218750X0.381250X-0.218750X0.381250X0.218750X0*%
%ADD20RoundRect,0.218750X-0.218750X-0.256250X0.218750X-0.256250X0.218750X0.256250X-0.218750X0.256250X0*%
%ADD21RoundRect,0.218750X-0.256250X0.218750X-0.256250X-0.218750X0.256250X-0.218750X0.256250X0.218750X0*%
%ADD22RoundRect,0.140000X0.170000X-0.140000X0.170000X0.140000X-0.170000X0.140000X-0.170000X-0.140000X0*%
%ADD23RoundRect,0.140000X-0.140000X-0.170000X0.140000X-0.170000X0.140000X0.170000X-0.140000X0.170000X0*%
%ADD24RoundRect,0.140000X0.140000X0.170000X-0.140000X0.170000X-0.140000X-0.170000X0.140000X-0.170000X0*%
%ADD25RoundRect,0.140000X-0.170000X0.140000X-0.170000X-0.140000X0.170000X-0.140000X0.170000X0.140000X0*%
%ADD26RoundRect,0.225000X0.225000X0.250000X-0.225000X0.250000X-0.225000X-0.250000X0.225000X-0.250000X0*%
%ADD27RoundRect,0.225000X-0.250000X0.225000X-0.250000X-0.225000X0.250000X-0.225000X0.250000X0.225000X0*%
G04 APERTURE END LIST*
D10*
%TO.C,Y1*%
X152700000Y-77150000D03*
X150500000Y-77150000D03*
X150500000Y-78850000D03*
X152700000Y-78850000D03*
%TD*%
D11*
%TO.C,U2*%
X158397500Y-75990000D03*
X158397500Y-76490000D03*
X158397500Y-76990000D03*
X158397500Y-77490000D03*
X158397500Y-77990000D03*
X158397500Y-78490000D03*
X158397500Y-78990000D03*
X158397500Y-79490000D03*
X158397500Y-79990000D03*
X158397500Y-80490000D03*
X158397500Y-80990000D03*
X158397500Y-81490000D03*
D12*
X159810000Y-82902500D03*
X160310000Y-82902500D03*
X160810000Y-82902500D03*
X161310000Y-82902500D03*
X161810000Y-82902500D03*
X162310000Y-82902500D03*
X162810000Y-82902500D03*
X163310000Y-82902500D03*
X163810000Y-82902500D03*
X164310000Y-82902500D03*
X164810000Y-82902500D03*
X165310000Y-82902500D03*
D11*
X166722500Y-81490000D03*
X166722500Y-80990000D03*
X166722500Y-80490000D03*
X166722500Y-79990000D03*
X166722500Y-79490000D03*
X166722500Y-78990000D03*
X166722500Y-78490000D03*
X166722500Y-77990000D03*
X166722500Y-77490000D03*
X166722500Y-76990000D03*
X166722500Y-76490000D03*
X166722500Y-75990000D03*
D12*
X165310000Y-74577500D03*
X164810000Y-74577500D03*
X164310000Y-74577500D03*
X163810000Y-74577500D03*
X163310000Y-74577500D03*
X162810000Y-74577500D03*
X162310000Y-74577500D03*
X161810000Y-74577500D03*
X161310000Y-74577500D03*
X160810000Y-74577500D03*
X160310000Y-74577500D03*
X159810000Y-74577500D03*
%TD*%
D13*
%TO.C,U1*%
X175590000Y-90950500D03*
X177490000Y-90950500D03*
X176540000Y-89075500D03*
%TD*%
D14*
%TO.C,R4*%
X153418000Y-84328000D03*
X152398000Y-84328000D03*
%TD*%
D15*
%TO.C,R3*%
X177300000Y-83425000D03*
X177300000Y-81775000D03*
%TD*%
D16*
%TO.C,R2*%
X161740000Y-69750000D03*
X162760000Y-69750000D03*
%TD*%
D15*
%TO.C,R1*%
X181112000Y-91220000D03*
X181112000Y-92870000D03*
%TD*%
D17*
%TO.C,L1*%
X154795000Y-81320000D03*
X155765000Y-81320000D03*
%TD*%
D18*
%TO.C,J1*%
X179906000Y-82386000D03*
X179906000Y-83036000D03*
X179906000Y-83686000D03*
X179906000Y-84336000D03*
X179906000Y-84986000D03*
%TD*%
D19*
%TO.C,FB1*%
X176540000Y-85140500D03*
X176540000Y-87265500D03*
%TD*%
D20*
%TO.C,D2*%
X154914500Y-84328000D03*
X156489500Y-84328000D03*
%TD*%
D21*
%TO.C,D1*%
X179334000Y-91257500D03*
X179334000Y-92832500D03*
%TD*%
D22*
%TO.C,C11*%
X155750000Y-80230000D03*
X155750000Y-79270000D03*
%TD*%
%TO.C,C10*%
X156800000Y-79270000D03*
X156800000Y-80230000D03*
%TD*%
D23*
%TO.C,C9*%
X159120000Y-71600000D03*
X160080000Y-71600000D03*
%TD*%
D24*
%TO.C,C8*%
X164874000Y-85000000D03*
X165834000Y-85000000D03*
%TD*%
%TO.C,C7*%
X150380000Y-80600000D03*
X149420000Y-80600000D03*
%TD*%
D25*
%TO.C,C6*%
X169000000Y-76960000D03*
X169000000Y-76000000D03*
%TD*%
D23*
%TO.C,C5*%
X160080000Y-72700000D03*
X159120000Y-72700000D03*
%TD*%
D24*
%TO.C,C4*%
X152428000Y-75600000D03*
X153388000Y-75600000D03*
%TD*%
D26*
%TO.C,C3*%
X156325000Y-74500000D03*
X157875000Y-74500000D03*
%TD*%
%TO.C,C2*%
X177315000Y-92807000D03*
X175765000Y-92807000D03*
%TD*%
D27*
%TO.C,C1*%
X174000000Y-89225000D03*
X174000000Y-90775000D03*
%TD*%
M02*
