%TF.GenerationSoftware,KiCad,Pcbnew,(6.0.9)*%
%TF.CreationDate,2023-03-20T19:11:49+01:00*%
%TF.ProjectId,STM32F103_prjct2,53544d33-3246-4313-9033-5f70726a6374,rev?*%
%TF.SameCoordinates,Original*%
%TF.FileFunction,Copper,L1,Top*%
%TF.FilePolarity,Positive*%
%FSLAX46Y46*%
G04 Gerber Fmt 4.6, Leading zero omitted, Abs format (unit mm)*
G04 Created by KiCad (PCBNEW (6.0.9)) date 2023-03-20 19:11:49*
%MOMM*%
%LPD*%
G01*
G04 APERTURE LIST*
G04 Aperture macros list*
%AMRoundRect*
0 Rectangle with rounded corners*
0 $1 Rounding radius*
0 $2 $3 $4 $5 $6 $7 $8 $9 X,Y pos of 4 corners*
0 Add a 4 corners polygon primitive as box body*
4,1,4,$2,$3,$4,$5,$6,$7,$8,$9,$2,$3,0*
0 Add four circle primitives for the rounded corners*
1,1,$1+$1,$2,$3*
1,1,$1+$1,$4,$5*
1,1,$1+$1,$6,$7*
1,1,$1+$1,$8,$9*
0 Add four rect primitives between the rounded corners*
20,1,$1+$1,$2,$3,$4,$5,0*
20,1,$1+$1,$4,$5,$6,$7,0*
20,1,$1+$1,$6,$7,$8,$9,0*
20,1,$1+$1,$8,$9,$2,$3,0*%
G04 Aperture macros list end*
%TA.AperFunction,SMDPad,CuDef*%
%ADD10R,1.400000X1.200000*%
%TD*%
%TA.AperFunction,SMDPad,CuDef*%
%ADD11RoundRect,0.075000X-0.662500X-0.075000X0.662500X-0.075000X0.662500X0.075000X-0.662500X0.075000X0*%
%TD*%
%TA.AperFunction,SMDPad,CuDef*%
%ADD12RoundRect,0.075000X-0.075000X-0.662500X0.075000X-0.662500X0.075000X0.662500X-0.075000X0.662500X0*%
%TD*%
%TA.AperFunction,SMDPad,CuDef*%
%ADD13RoundRect,0.150000X0.150000X-0.587500X0.150000X0.587500X-0.150000X0.587500X-0.150000X-0.587500X0*%
%TD*%
%TA.AperFunction,SMDPad,CuDef*%
%ADD14RoundRect,0.135000X0.135000X0.185000X-0.135000X0.185000X-0.135000X-0.185000X0.135000X-0.185000X0*%
%TD*%
%TA.AperFunction,SMDPad,CuDef*%
%ADD15RoundRect,0.200000X-0.275000X0.200000X-0.275000X-0.200000X0.275000X-0.200000X0.275000X0.200000X0*%
%TD*%
%TA.AperFunction,SMDPad,CuDef*%
%ADD16RoundRect,0.135000X-0.135000X-0.185000X0.135000X-0.185000X0.135000X0.185000X-0.135000X0.185000X0*%
%TD*%
%TA.AperFunction,SMDPad,CuDef*%
%ADD17RoundRect,0.147500X-0.147500X-0.172500X0.147500X-0.172500X0.147500X0.172500X-0.147500X0.172500X0*%
%TD*%
%TA.AperFunction,SMDPad,CuDef*%
%ADD18R,1.500000X1.000000*%
%TD*%
%TA.AperFunction,ComponentPad*%
%ADD19R,1.700000X1.700000*%
%TD*%
%TA.AperFunction,ComponentPad*%
%ADD20O,1.700000X1.700000*%
%TD*%
%TA.AperFunction,ComponentPad*%
%ADD21O,1.800000X1.150000*%
%TD*%
%TA.AperFunction,ComponentPad*%
%ADD22O,2.000000X1.450000*%
%TD*%
%TA.AperFunction,SMDPad,CuDef*%
%ADD23R,1.300000X0.450000*%
%TD*%
%TA.AperFunction,SMDPad,CuDef*%
%ADD24RoundRect,0.218750X-0.381250X0.218750X-0.381250X-0.218750X0.381250X-0.218750X0.381250X0.218750X0*%
%TD*%
%TA.AperFunction,SMDPad,CuDef*%
%ADD25RoundRect,0.218750X-0.218750X-0.256250X0.218750X-0.256250X0.218750X0.256250X-0.218750X0.256250X0*%
%TD*%
%TA.AperFunction,SMDPad,CuDef*%
%ADD26RoundRect,0.218750X-0.256250X0.218750X-0.256250X-0.218750X0.256250X-0.218750X0.256250X0.218750X0*%
%TD*%
%TA.AperFunction,SMDPad,CuDef*%
%ADD27RoundRect,0.140000X0.170000X-0.140000X0.170000X0.140000X-0.170000X0.140000X-0.170000X-0.140000X0*%
%TD*%
%TA.AperFunction,SMDPad,CuDef*%
%ADD28RoundRect,0.140000X-0.140000X-0.170000X0.140000X-0.170000X0.140000X0.170000X-0.140000X0.170000X0*%
%TD*%
%TA.AperFunction,SMDPad,CuDef*%
%ADD29RoundRect,0.140000X0.140000X0.170000X-0.140000X0.170000X-0.140000X-0.170000X0.140000X-0.170000X0*%
%TD*%
%TA.AperFunction,SMDPad,CuDef*%
%ADD30RoundRect,0.140000X-0.170000X0.140000X-0.170000X-0.140000X0.170000X-0.140000X0.170000X0.140000X0*%
%TD*%
%TA.AperFunction,SMDPad,CuDef*%
%ADD31RoundRect,0.225000X0.225000X0.250000X-0.225000X0.250000X-0.225000X-0.250000X0.225000X-0.250000X0*%
%TD*%
%TA.AperFunction,SMDPad,CuDef*%
%ADD32RoundRect,0.225000X-0.250000X0.225000X-0.250000X-0.225000X0.250000X-0.225000X0.250000X0.225000X0*%
%TD*%
%TA.AperFunction,ViaPad*%
%ADD33C,0.800000*%
%TD*%
%TA.AperFunction,Conductor*%
%ADD34C,0.250000*%
%TD*%
%TA.AperFunction,Conductor*%
%ADD35C,0.500000*%
%TD*%
%TA.AperFunction,Conductor*%
%ADD36C,0.300000*%
%TD*%
%TA.AperFunction,Conductor*%
%ADD37C,0.200000*%
%TD*%
G04 APERTURE END LIST*
D10*
%TO.P,Y1,1,1*%
%TO.N,/HSE_IN*%
X152700000Y-77150000D03*
%TO.P,Y1,2,2*%
%TO.N,GND*%
X150500000Y-77150000D03*
%TO.P,Y1,3,3*%
%TO.N,/HSE_OUT*%
X150500000Y-78850000D03*
%TO.P,Y1,4,4*%
%TO.N,GND*%
X152700000Y-78850000D03*
%TD*%
D11*
%TO.P,U2,1,VBAT*%
%TO.N,+3.3V*%
X158397500Y-75990000D03*
%TO.P,U2,2,PC13*%
%TO.N,PC13*%
X158397500Y-76490000D03*
%TO.P,U2,3,PC14*%
%TO.N,PC14*%
X158397500Y-76990000D03*
%TO.P,U2,4,PC15*%
%TO.N,PC15*%
X158397500Y-77490000D03*
%TO.P,U2,5,PD0*%
%TO.N,/HSE_IN*%
X158397500Y-77990000D03*
%TO.P,U2,6,PD1*%
%TO.N,/HSE_OUT*%
X158397500Y-78490000D03*
%TO.P,U2,7,NRST*%
%TO.N,unconnected-(U2-Pad7)*%
X158397500Y-78990000D03*
%TO.P,U2,8,VSSA*%
%TO.N,GND*%
X158397500Y-79490000D03*
%TO.P,U2,9,VDDA*%
%TO.N,+3.3VA*%
X158397500Y-79990000D03*
%TO.P,U2,10,PA0*%
%TO.N,unconnected-(U2-Pad10)*%
X158397500Y-80490000D03*
%TO.P,U2,11,PA1*%
%TO.N,Net-(D2-Pad2)*%
X158397500Y-80990000D03*
%TO.P,U2,12,PA2*%
%TO.N,unconnected-(U2-Pad12)*%
X158397500Y-81490000D03*
D12*
%TO.P,U2,13,PA3*%
%TO.N,PA3*%
X159810000Y-82902500D03*
%TO.P,U2,14,PA4*%
%TO.N,PA4*%
X160310000Y-82902500D03*
%TO.P,U2,15,PA5*%
%TO.N,PA5*%
X160810000Y-82902500D03*
%TO.P,U2,16,PA6*%
%TO.N,PA6*%
X161310000Y-82902500D03*
%TO.P,U2,17,PA7*%
%TO.N,PA7*%
X161810000Y-82902500D03*
%TO.P,U2,18,PB0*%
%TO.N,PB0*%
X162310000Y-82902500D03*
%TO.P,U2,19,PB1*%
%TO.N,PB1*%
X162810000Y-82902500D03*
%TO.P,U2,20,PB2*%
%TO.N,PB2*%
X163310000Y-82902500D03*
%TO.P,U2,21,PB10*%
%TO.N,PB10*%
X163810000Y-82902500D03*
%TO.P,U2,22,PB11*%
%TO.N,PB11*%
X164310000Y-82902500D03*
%TO.P,U2,23,VSS*%
%TO.N,GND*%
X164810000Y-82902500D03*
%TO.P,U2,24,VDD*%
%TO.N,+3.3V*%
X165310000Y-82902500D03*
D11*
%TO.P,U2,25,PB12*%
%TO.N,unconnected-(U2-Pad25)*%
X166722500Y-81490000D03*
%TO.P,U2,26,PB13*%
%TO.N,unconnected-(U2-Pad26)*%
X166722500Y-80990000D03*
%TO.P,U2,27,PB14*%
%TO.N,unconnected-(U2-Pad27)*%
X166722500Y-80490000D03*
%TO.P,U2,28,PB15*%
%TO.N,unconnected-(U2-Pad28)*%
X166722500Y-79990000D03*
%TO.P,U2,29,PA8*%
%TO.N,PA8*%
X166722500Y-79490000D03*
%TO.P,U2,30,PA9*%
%TO.N,PA9*%
X166722500Y-78990000D03*
%TO.P,U2,31,PA10*%
%TO.N,PA10*%
X166722500Y-78490000D03*
%TO.P,U2,32,PA11*%
%TO.N,USB_D-*%
X166722500Y-77990000D03*
%TO.P,U2,33,PA12*%
%TO.N,USB_D+*%
X166722500Y-77490000D03*
%TO.P,U2,34,PA13*%
%TO.N,SWDIO*%
X166722500Y-76990000D03*
%TO.P,U2,35,VSS*%
%TO.N,GND*%
X166722500Y-76490000D03*
%TO.P,U2,36,VDD*%
%TO.N,+3.3V*%
X166722500Y-75990000D03*
D12*
%TO.P,U2,37,PA14*%
%TO.N,SWCLK*%
X165310000Y-74577500D03*
%TO.P,U2,38,PA15*%
%TO.N,PA15*%
X164810000Y-74577500D03*
%TO.P,U2,39,PB3*%
%TO.N,SW0*%
X164310000Y-74577500D03*
%TO.P,U2,40,PB4*%
%TO.N,PB4*%
X163810000Y-74577500D03*
%TO.P,U2,41,PB5*%
%TO.N,PB5*%
X163310000Y-74577500D03*
%TO.P,U2,42,PB6*%
%TO.N,PB6*%
X162810000Y-74577500D03*
%TO.P,U2,43,PB7*%
%TO.N,PB7*%
X162310000Y-74577500D03*
%TO.P,U2,44,BOOT0*%
%TO.N,/BOOT0*%
X161810000Y-74577500D03*
%TO.P,U2,45,PB8*%
%TO.N,PB8*%
X161310000Y-74577500D03*
%TO.P,U2,46,PB9*%
%TO.N,PB9*%
X160810000Y-74577500D03*
%TO.P,U2,47,VSS*%
%TO.N,GND*%
X160310000Y-74577500D03*
%TO.P,U2,48,VDD*%
%TO.N,+3.3V*%
X159810000Y-74577500D03*
%TD*%
D13*
%TO.P,U1,1,GND*%
%TO.N,GND*%
X175590000Y-90950500D03*
%TO.P,U1,2,VO*%
%TO.N,+3.3V*%
X177490000Y-90950500D03*
%TO.P,U1,3,VI*%
%TO.N,VCC*%
X176540000Y-89075500D03*
%TD*%
D14*
%TO.P,R4,1*%
%TO.N,Net-(D2-Pad1)*%
X153418000Y-84328000D03*
%TO.P,R4,2*%
%TO.N,GND*%
X152398000Y-84328000D03*
%TD*%
D15*
%TO.P,R3,2*%
%TO.N,USB_D+*%
X177300000Y-83425000D03*
%TO.P,R3,1*%
%TO.N,+3.3V*%
X177300000Y-81775000D03*
%TD*%
D16*
%TO.P,R2,1*%
%TO.N,/BOOT0*%
X161740000Y-69750000D03*
%TO.P,R2,2*%
%TO.N,GND*%
X162760000Y-69750000D03*
%TD*%
D15*
%TO.P,R1,1*%
%TO.N,Net-(D1-Pad1)*%
X181112000Y-91220000D03*
%TO.P,R1,2*%
%TO.N,GND*%
X181112000Y-92870000D03*
%TD*%
D17*
%TO.P,L1,1,1*%
%TO.N,+3.3V*%
X154795000Y-81320000D03*
%TO.P,L1,2,2*%
%TO.N,+3.3VA*%
X155765000Y-81320000D03*
%TD*%
D18*
%TO.P,JP1,2,B*%
%TO.N,/BOOT0*%
X162250000Y-67400000D03*
%TO.P,JP1,1,A*%
%TO.N,+3.3V*%
X162250000Y-66100000D03*
%TD*%
D19*
%TO.P,J3,1,Pin_1*%
%TO.N,+3.3V*%
X182525000Y-99314000D03*
D20*
%TO.P,J3,2,Pin_2*%
%TO.N,GND*%
X179985000Y-99314000D03*
%TO.P,J3,3,Pin_3*%
%TO.N,PA10*%
X177445000Y-99314000D03*
%TO.P,J3,4,Pin_4*%
%TO.N,PA9*%
X174905000Y-99314000D03*
%TO.P,J3,5,Pin_5*%
%TO.N,PA8*%
X172365000Y-99314000D03*
%TO.P,J3,6,Pin_6*%
%TO.N,PB11*%
X169825000Y-99314000D03*
%TO.P,J3,7,Pin_7*%
%TO.N,PB10*%
X167285000Y-99314000D03*
%TO.P,J3,8,Pin_8*%
%TO.N,PB2*%
X164745000Y-99314000D03*
%TO.P,J3,9,Pin_9*%
%TO.N,PB1*%
X162205000Y-99314000D03*
%TO.P,J3,10,Pin_10*%
%TO.N,PB0*%
X159665000Y-99314000D03*
%TO.P,J3,11,Pin_11*%
%TO.N,PA7*%
X157125000Y-99314000D03*
%TO.P,J3,12,Pin_12*%
%TO.N,PA6*%
X154585000Y-99314000D03*
%TO.P,J3,13,Pin_13*%
%TO.N,PA5*%
X152045000Y-99314000D03*
%TO.P,J3,14,Pin_14*%
%TO.N,PA4*%
X149505000Y-99314000D03*
%TO.P,J3,15,Pin_15*%
%TO.N,PA3*%
X146965000Y-99314000D03*
%TD*%
D19*
%TO.P,J2,1,Pin_1*%
%TO.N,+3.3V*%
X182310000Y-58800000D03*
D20*
%TO.P,J2,2,Pin_2*%
%TO.N,GND*%
X179770000Y-58800000D03*
%TO.P,J2,3,Pin_3*%
%TO.N,SWDIO*%
X177230000Y-58800000D03*
%TO.P,J2,4,Pin_4*%
%TO.N,SWCLK*%
X174690000Y-58800000D03*
%TO.P,J2,5,Pin_5*%
%TO.N,PA15*%
X172150000Y-58800000D03*
%TO.P,J2,6,Pin_6*%
%TO.N,SW0*%
X169610000Y-58800000D03*
%TO.P,J2,7,Pin_7*%
%TO.N,PB4*%
X167070000Y-58800000D03*
%TO.P,J2,8,Pin_8*%
%TO.N,PB5*%
X164530000Y-58800000D03*
%TO.P,J2,9,Pin_9*%
%TO.N,PB6*%
X161990000Y-58800000D03*
%TO.P,J2,10,Pin_10*%
%TO.N,PB7*%
X159450000Y-58800000D03*
%TO.P,J2,11,Pin_11*%
%TO.N,PB8*%
X156910000Y-58800000D03*
%TO.P,J2,12,Pin_12*%
%TO.N,PB9*%
X154370000Y-58800000D03*
%TO.P,J2,13,Pin_13*%
%TO.N,PC13*%
X151830000Y-58800000D03*
%TO.P,J2,14,Pin_14*%
%TO.N,PC14*%
X149290000Y-58800000D03*
%TO.P,J2,15,Pin_15*%
%TO.N,PC15*%
X146750000Y-58800000D03*
%TD*%
D21*
%TO.P,J1,6,Shield*%
%TO.N,N/C*%
X183756000Y-79811000D03*
X183756000Y-87561000D03*
D22*
X179956000Y-79961000D03*
X179956000Y-87411000D03*
D23*
%TO.P,J1,5,GND*%
%TO.N,GND*%
X179906000Y-82386000D03*
%TO.P,J1,4,ID*%
%TO.N,unconnected-(J1-Pad4)*%
X179906000Y-83036000D03*
%TO.P,J1,3,D+*%
%TO.N,USB_D+*%
X179906000Y-83686000D03*
%TO.P,J1,2,D-*%
%TO.N,USB_D-*%
X179906000Y-84336000D03*
%TO.P,J1,1,VBUS*%
%TO.N,+5V*%
X179906000Y-84986000D03*
%TD*%
D24*
%TO.P,FB1,1*%
%TO.N,+5V*%
X176540000Y-85140500D03*
%TO.P,FB1,2*%
%TO.N,VCC*%
X176540000Y-87265500D03*
%TD*%
D25*
%TO.P,D2,1,K*%
%TO.N,Net-(D2-Pad1)*%
X154914500Y-84328000D03*
%TO.P,D2,2,A*%
%TO.N,Net-(D2-Pad2)*%
X156489500Y-84328000D03*
%TD*%
D26*
%TO.P,D1,1,K*%
%TO.N,Net-(D1-Pad1)*%
X179334000Y-91257500D03*
%TO.P,D1,2,A*%
%TO.N,+3.3V*%
X179334000Y-92832500D03*
%TD*%
D27*
%TO.P,C11,1*%
%TO.N,+3.3VA*%
X155750000Y-80230000D03*
%TO.P,C11,2*%
%TO.N,GND*%
X155750000Y-79270000D03*
%TD*%
%TO.P,C10,2*%
%TO.N,GND*%
X156800000Y-79270000D03*
%TO.P,C10,1*%
%TO.N,+3.3VA*%
X156800000Y-80230000D03*
%TD*%
D28*
%TO.P,C9,1*%
%TO.N,+3.3V*%
X159120000Y-71600000D03*
%TO.P,C9,2*%
%TO.N,GND*%
X160080000Y-71600000D03*
%TD*%
D29*
%TO.P,C8,2*%
%TO.N,GND*%
X164874000Y-85000000D03*
%TO.P,C8,1*%
%TO.N,+3.3V*%
X165834000Y-85000000D03*
%TD*%
%TO.P,C7,1*%
%TO.N,/HSE_OUT*%
X150380000Y-80600000D03*
%TO.P,C7,2*%
%TO.N,GND*%
X149420000Y-80600000D03*
%TD*%
D30*
%TO.P,C6,2*%
%TO.N,GND*%
X169000000Y-76960000D03*
%TO.P,C6,1*%
%TO.N,+3.3V*%
X169000000Y-76000000D03*
%TD*%
D28*
%TO.P,C5,2*%
%TO.N,GND*%
X160080000Y-72700000D03*
%TO.P,C5,1*%
%TO.N,+3.3V*%
X159120000Y-72700000D03*
%TD*%
D29*
%TO.P,C4,2*%
%TO.N,GND*%
X152428000Y-75600000D03*
%TO.P,C4,1*%
%TO.N,/HSE_IN*%
X153388000Y-75600000D03*
%TD*%
D31*
%TO.P,C3,2*%
%TO.N,GND*%
X156325000Y-74500000D03*
%TO.P,C3,1*%
%TO.N,+3.3V*%
X157875000Y-74500000D03*
%TD*%
%TO.P,C2,1*%
%TO.N,+3.3V*%
X177315000Y-92807000D03*
%TO.P,C2,2*%
%TO.N,GND*%
X175765000Y-92807000D03*
%TD*%
D32*
%TO.P,C1,1*%
%TO.N,VCC*%
X174000000Y-89225000D03*
%TO.P,C1,2*%
%TO.N,GND*%
X174000000Y-90775000D03*
%TD*%
D33*
%TO.N,GND*%
X151075000Y-84300000D03*
X148700000Y-81675000D03*
X179650000Y-61750000D03*
X178925000Y-97075000D03*
X152150000Y-79875500D03*
X149125000Y-75875000D03*
X159850000Y-79500000D03*
X170000000Y-76900500D03*
X174000000Y-92100000D03*
X176500000Y-91000000D03*
X174600000Y-94100000D03*
X181100000Y-94300000D03*
X155000000Y-73100000D03*
X151200000Y-75600000D03*
X178600000Y-82400000D03*
X181300000Y-82400000D03*
X164200000Y-81300000D03*
X160500000Y-76100000D03*
X162630500Y-68900000D03*
%TD*%
D34*
%TO.N,+3.3V*%
X153005000Y-57555000D02*
X152950000Y-57500000D01*
X153005000Y-65485000D02*
X153005000Y-57555000D01*
X159120000Y-71600000D02*
X153005000Y-65485000D01*
D35*
X152950000Y-57500000D02*
X157448478Y-57500000D01*
X146211522Y-57500000D02*
X152950000Y-57500000D01*
D34*
X159120000Y-72700000D02*
X159120000Y-71600000D01*
X158275000Y-60775000D02*
X158275000Y-58326522D01*
X158275000Y-58326522D02*
X158210000Y-58261522D01*
D35*
X157874239Y-57925761D02*
X158210000Y-58261522D01*
D34*
X162250000Y-64750000D02*
X158275000Y-60775000D01*
X162250000Y-66100000D02*
X162250000Y-64750000D01*
X159810000Y-73860000D02*
X159120000Y-73170000D01*
X159120000Y-73170000D02*
X159120000Y-72700000D01*
X159810000Y-74577500D02*
X159810000Y-73860000D01*
%TO.N,GND*%
X151103000Y-84328000D02*
X151075000Y-84300000D01*
X152398000Y-84328000D02*
X151103000Y-84328000D01*
X149420000Y-80955000D02*
X148700000Y-81675000D01*
X149420000Y-80600000D02*
X149420000Y-80955000D01*
D35*
X179770000Y-61630000D02*
X179650000Y-61750000D01*
X179770000Y-58800000D02*
X179770000Y-61630000D01*
X179985000Y-98135000D02*
X178925000Y-97075000D01*
X179985000Y-99314000D02*
X179985000Y-98135000D01*
D36*
X152700000Y-79325500D02*
X152150000Y-79875500D01*
X152700000Y-78850000D02*
X152700000Y-79325500D01*
X150400000Y-77150000D02*
X149125000Y-75875000D01*
X150500000Y-77150000D02*
X150400000Y-77150000D01*
D34*
X159840000Y-79490000D02*
X159850000Y-79500000D01*
X158397500Y-79490000D02*
X159840000Y-79490000D01*
D35*
%TO.N,+3.3V*%
X179550000Y-75350000D02*
X182310000Y-72590000D01*
X182310000Y-72590000D02*
X182310000Y-58800000D01*
D34*
%TO.N,GND*%
X169940500Y-76960000D02*
X170000000Y-76900500D01*
X169000000Y-76960000D02*
X169940500Y-76960000D01*
D35*
%TO.N,+3.3V*%
X157824239Y-57875761D02*
X157874239Y-57925761D01*
X157624239Y-57675761D02*
X157824239Y-57875761D01*
X157448478Y-57500000D02*
X157624239Y-57675761D01*
X145300000Y-58411522D02*
X146211522Y-57500000D01*
X145300000Y-83000000D02*
X145300000Y-58411522D01*
D34*
%TO.N,PC15*%
X146750000Y-67550391D02*
X146750000Y-58800000D01*
%TO.N,PC14*%
X149290000Y-69354213D02*
X149290000Y-58800000D01*
%TO.N,PC13*%
X151830000Y-71257817D02*
X151830000Y-58800000D01*
%TO.N,PB9*%
X154370000Y-64922391D02*
X154370000Y-58800000D01*
%TO.N,PB8*%
X156910000Y-65890538D02*
X156910000Y-58800000D01*
X161310000Y-70290538D02*
X156910000Y-65890538D01*
X161310000Y-74577500D02*
X161310000Y-70290538D01*
%TO.N,SWDIO*%
X177230000Y-61170000D02*
X177230000Y-58800000D01*
X165800000Y-72600000D02*
X177230000Y-61170000D01*
%TO.N,SWCLK*%
X174690000Y-62990000D02*
X174690000Y-58800000D01*
%TO.N,PA15*%
X172150000Y-64686396D02*
X172150000Y-58800000D01*
%TO.N,SW0*%
X169610000Y-66590000D02*
X169610000Y-58800000D01*
X164310000Y-71890000D02*
X169610000Y-66590000D01*
X164310000Y-74577500D02*
X164310000Y-71890000D01*
%TO.N,PB4*%
X167070000Y-68430000D02*
X167070000Y-58800000D01*
X163810000Y-71690000D02*
X167070000Y-68430000D01*
X163810000Y-74577500D02*
X163810000Y-71690000D01*
%TO.N,PB5*%
X164530000Y-70270000D02*
X164530000Y-58800000D01*
%TO.N,PB6*%
X163805000Y-64105000D02*
X161990000Y-62290000D01*
X163805000Y-70311934D02*
X163805000Y-64105000D01*
X162810000Y-71306934D02*
X163805000Y-70311934D01*
X162810000Y-74577500D02*
X162810000Y-71306934D01*
X161990000Y-62290000D02*
X161990000Y-58800000D01*
%TO.N,PB7*%
X159450000Y-60750000D02*
X159450000Y-58800000D01*
X163355000Y-64655000D02*
X159450000Y-60750000D01*
X163355000Y-70125538D02*
X163355000Y-64655000D01*
X162310000Y-74577500D02*
X162310000Y-71170538D01*
X162310000Y-71170538D02*
X163355000Y-70125538D01*
D35*
%TO.N,VCC*%
X174149500Y-89075500D02*
X174000000Y-89225000D01*
X176540000Y-89075500D02*
X174149500Y-89075500D01*
X176540000Y-87265500D02*
X176540000Y-89075500D01*
%TO.N,+5V*%
X176669500Y-85011000D02*
X179906000Y-85011000D01*
X176540000Y-85140500D02*
X176669500Y-85011000D01*
D34*
%TO.N,GND*%
X174000000Y-90775000D02*
X174000000Y-92100000D01*
X176450500Y-90950500D02*
X176500000Y-91000000D01*
X175590000Y-90950500D02*
X176450500Y-90950500D01*
X175765000Y-92935000D02*
X174600000Y-94100000D01*
X175765000Y-92807000D02*
X175765000Y-92935000D01*
X174175500Y-90950500D02*
X174000000Y-90775000D01*
X175590000Y-90950500D02*
X174175500Y-90950500D01*
X175765000Y-91125500D02*
X175590000Y-90950500D01*
X175765000Y-92807000D02*
X175765000Y-91125500D01*
X181112000Y-94288000D02*
X181100000Y-94300000D01*
X181112000Y-92870000D02*
X181112000Y-94288000D01*
%TO.N,Net-(D1-Pad1)*%
X179371500Y-91220000D02*
X179334000Y-91257500D01*
X181112000Y-91220000D02*
X179371500Y-91220000D01*
%TO.N,GND*%
X156325000Y-74425000D02*
X155000000Y-73100000D01*
X156325000Y-74500000D02*
X156325000Y-74425000D01*
D35*
%TO.N,+3.3V*%
X157875000Y-73945000D02*
X159120000Y-72700000D01*
X157875000Y-74500000D02*
X157875000Y-73945000D01*
X158297500Y-75890000D02*
X158397500Y-75890000D01*
X157875000Y-75467500D02*
X158297500Y-75890000D01*
X157875000Y-74500000D02*
X157875000Y-75467500D01*
D34*
%TO.N,GND*%
X157020000Y-79490000D02*
X156800000Y-79270000D01*
X158397500Y-79490000D02*
X157020000Y-79490000D01*
X156800000Y-79270000D02*
X155750000Y-79270000D01*
D35*
%TO.N,+3.3V*%
X154795000Y-81320000D02*
X154795000Y-81405000D01*
X154795000Y-81405000D02*
X153200000Y-83000000D01*
X153200000Y-83000000D02*
X145300000Y-83000000D01*
X145300000Y-99600000D02*
X145300000Y-83000000D01*
D34*
%TO.N,+3.3VA*%
X155750000Y-81305000D02*
X155765000Y-81320000D01*
X155750000Y-80230000D02*
X155750000Y-81305000D01*
X156800000Y-80230000D02*
X155750000Y-80230000D01*
X157040000Y-79990000D02*
X156800000Y-80230000D01*
X158397500Y-79990000D02*
X157040000Y-79990000D01*
%TO.N,Net-(D2-Pad2)*%
X159460000Y-81160000D02*
X159290000Y-80990000D01*
X159290000Y-80990000D02*
X158397500Y-80990000D01*
X159460000Y-81730685D02*
X159460000Y-81160000D01*
X156862685Y-84328000D02*
X159460000Y-81730685D01*
X156489500Y-84328000D02*
X156862685Y-84328000D01*
%TO.N,Net-(D2-Pad1)*%
X154914500Y-84328000D02*
X153418000Y-84328000D01*
%TO.N,GND*%
X152428000Y-75600000D02*
X151200000Y-75600000D01*
%TO.N,/HSE_IN*%
X153388000Y-76462000D02*
X153388000Y-75600000D01*
X152700000Y-77150000D02*
X153388000Y-76462000D01*
X154490000Y-77990000D02*
X153400000Y-76900000D01*
X158397500Y-77990000D02*
X154490000Y-77990000D01*
%TO.N,/HSE_OUT*%
X150500000Y-80480000D02*
X150380000Y-80600000D01*
X150500000Y-78850000D02*
X150500000Y-80480000D01*
X152800000Y-80600000D02*
X150380000Y-80600000D01*
X154910000Y-78490000D02*
X152800000Y-80600000D01*
X158397500Y-78490000D02*
X154910000Y-78490000D01*
%TO.N,GND*%
X178614000Y-82386000D02*
X178600000Y-82400000D01*
X179906000Y-82386000D02*
X178614000Y-82386000D01*
X181286000Y-82386000D02*
X181300000Y-82400000D01*
X179906000Y-82386000D02*
X181286000Y-82386000D01*
D35*
%TO.N,+3.3V*%
X179550000Y-75350000D02*
X176700000Y-78200000D01*
X176700000Y-78200000D02*
X177300000Y-78800000D01*
X174500000Y-76000000D02*
X176700000Y-78200000D01*
X177300000Y-78800000D02*
X177300000Y-81775000D01*
D37*
%TO.N,USB_D-*%
X178930999Y-84336000D02*
X179906000Y-84336000D01*
X178830999Y-84236000D02*
X178930999Y-84336000D01*
X176240538Y-84236000D02*
X178830999Y-84236000D01*
X170054519Y-78049981D02*
X176240538Y-84236000D01*
X168521357Y-78049981D02*
X170054519Y-78049981D01*
X168436377Y-77965001D02*
X168521357Y-78049981D01*
X166747499Y-77965001D02*
X168436377Y-77965001D01*
X166722500Y-77990000D02*
X166747499Y-77965001D01*
%TO.N,USB_D+*%
X178930999Y-83686000D02*
X179906000Y-83686000D01*
X178830999Y-83786000D02*
X178930999Y-83686000D01*
X176426938Y-83786000D02*
X178830999Y-83786000D01*
X170240938Y-77600000D02*
X176426938Y-83786000D01*
X168707746Y-77600000D02*
X170240938Y-77600000D01*
X168622745Y-77514999D02*
X168707746Y-77600000D01*
X166722500Y-77490000D02*
X166747499Y-77514999D01*
X166747499Y-77514999D02*
X168622745Y-77514999D01*
D35*
%TO.N,+3.3V*%
X179550000Y-76950000D02*
X179550000Y-75350000D01*
X182400000Y-79800000D02*
X179550000Y-76950000D01*
X182406000Y-99195000D02*
X182406000Y-79806000D01*
X182406000Y-79806000D02*
X182400000Y-79800000D01*
X182525000Y-99314000D02*
X182406000Y-99195000D01*
X179334000Y-94734000D02*
X182400000Y-97800000D01*
X182400000Y-97900000D02*
X182400000Y-99189000D01*
X182400000Y-97800000D02*
X182400000Y-97900000D01*
X182400000Y-79800000D02*
X182400000Y-97900000D01*
X179334000Y-92832500D02*
X179334000Y-94734000D01*
X182400000Y-99189000D02*
X182525000Y-99314000D01*
X174500000Y-76000000D02*
X169000000Y-76000000D01*
X179308500Y-92807000D02*
X179334000Y-92832500D01*
X177315000Y-92807000D02*
X179308500Y-92807000D01*
X177490000Y-92632000D02*
X177315000Y-92807000D01*
X177490000Y-90950500D02*
X177490000Y-92632000D01*
D34*
%TO.N,PA8*%
X167525685Y-79490000D02*
X166722500Y-79490000D01*
X172365000Y-95506792D02*
X168700000Y-91841792D01*
X168700000Y-91841792D02*
X168700000Y-80664315D01*
X168700000Y-80664315D02*
X167525685Y-79490000D01*
X172365000Y-99314000D02*
X172365000Y-95506792D01*
%TO.N,PA9*%
X169200000Y-80527920D02*
X169086040Y-80413960D01*
X169200000Y-91705396D02*
X169200000Y-80527920D01*
X174905000Y-97410396D02*
X169200000Y-91705396D01*
X174905000Y-99314000D02*
X174905000Y-97410396D01*
X167662081Y-78990000D02*
X169086040Y-80413960D01*
X169086040Y-80413960D02*
X169200000Y-80527919D01*
%TO.N,+3.3V*%
X171100000Y-96549604D02*
X171100000Y-101200000D01*
X165834000Y-91283604D02*
X171100000Y-96549604D01*
X171100000Y-101200000D02*
X171000000Y-101300000D01*
X165834000Y-85000000D02*
X165834000Y-91283604D01*
D35*
X171000000Y-101300000D02*
X147000000Y-101300000D01*
X180900000Y-101300000D02*
X171000000Y-101300000D01*
D34*
X165834000Y-84434000D02*
X165834000Y-85000000D01*
X165310000Y-83910000D02*
X165834000Y-84434000D01*
X165310000Y-82902500D02*
X165310000Y-83910000D01*
%TO.N,GND*%
X164810000Y-81910000D02*
X164200000Y-81300000D01*
X164810000Y-82902500D02*
X164810000Y-81910000D01*
X164810000Y-84936000D02*
X164810000Y-82902500D01*
X164874000Y-85000000D02*
X164810000Y-84936000D01*
X160310000Y-75910000D02*
X160500000Y-76100000D01*
X160310000Y-74577500D02*
X160310000Y-75910000D01*
%TO.N,+3.3V*%
X168990000Y-75990000D02*
X169000000Y-76000000D01*
X166722500Y-75990000D02*
X168990000Y-75990000D01*
%TO.N,GND*%
X168400000Y-77000000D02*
X168960000Y-77000000D01*
X167890000Y-76490000D02*
X168400000Y-77000000D01*
X168960000Y-77000000D02*
X169000000Y-76960000D01*
X166722500Y-76490000D02*
X167890000Y-76490000D01*
X162760000Y-69029500D02*
X162630500Y-68900000D01*
X162760000Y-69750000D02*
X162760000Y-69029500D01*
%TO.N,/BOOT0*%
X161300000Y-69310000D02*
X161740000Y-69750000D01*
X162200000Y-67400000D02*
X161300000Y-68300000D01*
X162250000Y-67400000D02*
X162200000Y-67400000D01*
X161300000Y-68300000D02*
X161300000Y-69310000D01*
X161810000Y-69820000D02*
X161740000Y-69750000D01*
X161810000Y-74577500D02*
X161810000Y-69820000D01*
D35*
%TO.N,+3.3V*%
X147000000Y-101300000D02*
X145300000Y-99600000D01*
X182525000Y-99675000D02*
X180900000Y-101300000D01*
X182525000Y-99314000D02*
X182525000Y-99675000D01*
D34*
%TO.N,SWDIO*%
X165800000Y-75390685D02*
X165800000Y-72600000D01*
X165550685Y-75640000D02*
X165800000Y-75390685D01*
X165550685Y-76621370D02*
X165550685Y-75640000D01*
X165919315Y-76990000D02*
X165550685Y-76621370D01*
X166722500Y-76990000D02*
X165919315Y-76990000D01*
%TO.N,SWCLK*%
X174700000Y-63000000D02*
X174690000Y-62990000D01*
X165310000Y-72390000D02*
X174700000Y-63000000D01*
X165310000Y-74577500D02*
X165310000Y-72390000D01*
%TO.N,PA15*%
X164810000Y-73774315D02*
X164800000Y-73764315D01*
X164800000Y-73764315D02*
X164800000Y-72036396D01*
X164810000Y-74577500D02*
X164810000Y-73774315D01*
X164800000Y-72036396D02*
X172150000Y-64686396D01*
%TO.N,PB5*%
X163310000Y-71490000D02*
X164530000Y-70270000D01*
X163310000Y-74577500D02*
X163310000Y-71490000D01*
%TO.N,PB9*%
X160810000Y-74577500D02*
X160810000Y-71362391D01*
X160810000Y-71362391D02*
X154370000Y-64922391D01*
%TO.N,GND*%
X160080000Y-72700000D02*
X160080000Y-71600000D01*
X160310000Y-72930000D02*
X160080000Y-72700000D01*
X160310000Y-74577500D02*
X160310000Y-72930000D01*
%TO.N,PC15*%
X156689609Y-77490000D02*
X146750000Y-67550391D01*
X158397500Y-77490000D02*
X156689609Y-77490000D01*
%TO.N,PC14*%
X156925787Y-76990000D02*
X149290000Y-69354213D01*
X158397500Y-76990000D02*
X156925787Y-76990000D01*
%TO.N,PC13*%
X157062183Y-76490000D02*
X151830000Y-71257817D01*
X158397500Y-76490000D02*
X157062183Y-76490000D01*
%TO.N,PA5*%
X152000000Y-97400000D02*
X152045000Y-97445000D01*
X160810000Y-88590000D02*
X152000000Y-97400000D01*
X160810000Y-82902500D02*
X160810000Y-88590000D01*
X152045000Y-97445000D02*
X152045000Y-99314000D01*
%TO.N,PA10*%
X169650000Y-80341523D02*
X167798477Y-78490000D01*
X167798477Y-78490000D02*
X166722500Y-78490000D01*
X177445000Y-99314000D02*
X169650000Y-91519000D01*
X169650000Y-91519000D02*
X169650000Y-80341523D01*
%TO.N,PA9*%
X166722500Y-78990000D02*
X167662081Y-78990000D01*
%TO.N,PB2*%
X164745000Y-92181396D02*
X164745000Y-99314000D01*
X163310000Y-90746396D02*
X164745000Y-92181396D01*
X163310000Y-82902500D02*
X163310000Y-90746396D01*
%TO.N,PB10*%
X167300000Y-94100000D02*
X167285000Y-94115000D01*
X163810000Y-90610000D02*
X167300000Y-94100000D01*
X163810000Y-82902500D02*
X163810000Y-90610000D01*
X167285000Y-94115000D02*
X167285000Y-99314000D01*
%TO.N,PB11*%
X169825000Y-95911000D02*
X169825000Y-99314000D01*
X164269000Y-84637391D02*
X164269000Y-90355000D01*
X164310000Y-84596391D02*
X164269000Y-84637391D01*
X164269000Y-90355000D02*
X169825000Y-95911000D01*
X164310000Y-82902500D02*
X164310000Y-84596391D01*
%TO.N,PA3*%
X159810000Y-86469000D02*
X146965000Y-99314000D01*
X159810000Y-82902500D02*
X159810000Y-86469000D01*
%TO.N,PA4*%
X149505000Y-97762604D02*
X149505000Y-99314000D01*
X160310000Y-86957604D02*
X149505000Y-97762604D01*
X160310000Y-82902500D02*
X160310000Y-86957604D01*
%TO.N,PA6*%
X161310000Y-90912000D02*
X154585000Y-97637000D01*
X154585000Y-97637000D02*
X154585000Y-99314000D01*
X161310000Y-82902500D02*
X161310000Y-90912000D01*
%TO.N,PA7*%
X157125000Y-96621000D02*
X157125000Y-99314000D01*
X161810000Y-91936000D02*
X157125000Y-96621000D01*
X161810000Y-82902500D02*
X161810000Y-91936000D01*
%TO.N,PB0*%
X159665000Y-95351000D02*
X159665000Y-99314000D01*
X162310000Y-92706000D02*
X159665000Y-95351000D01*
X162310000Y-82902500D02*
X162310000Y-92706000D01*
%TO.N,PB1*%
X162810000Y-98709000D02*
X162205000Y-99314000D01*
X162810000Y-82902500D02*
X162810000Y-98709000D01*
%TD*%
M02*
